M48
; DRILL file {KiCad 9.0.0} date 2025-06-02T11:47:32-0400
; FORMAT={-:-/ absolute / inch / decimal}
; #@! TF.CreationDate,2025-06-02T11:47:32-04:00
; #@! TF.GenerationSoftware,Kicad,Pcbnew,9.0.0
; #@! TF.FileFunction,Plated,1,4,PTH
FMAT,2
INCH
; #@! TA.AperFunction,Plated,PTH,ViaDrill
T1C0.0118
; #@! TA.AperFunction,Plated,PTH,ViaDrill
T2C0.0276
; #@! TA.AperFunction,Plated,PTH,ComponentDrill
T3C0.0394
%
G90
G05
T1
X3.8725Y-2.7068
X3.8725Y-2.8705
X3.8725Y-2.9695
X3.8732Y-2.6488
X3.8803Y-3.2087
X3.8803Y-3.2862
X3.8803Y-3.3846
X3.988Y-2.7594
X4.0451Y-2.7585
X4.0657Y-3.1354
X4.0698Y-3.2838
X4.6292Y-3.127
X4.6396Y-3.0055
X4.6789Y-3.0055
X4.6799Y-2.9408
X4.7263Y-2.728
X4.7657Y-2.728
X4.7795Y-3.0831
X4.7951Y-3.0439
X4.8374Y-2.9366
X4.8541Y-2.9853
X4.8541Y-3.0463
X4.922Y-3.1087
X4.9228Y-3.1575
X5.0874Y-3.4811
X5.1433Y-3.0591
X5.1449Y-3.3386
X5.168Y-2.742
X5.2172Y-2.742
X5.2362Y-3.4811
X5.2833Y-3.3386
X5.3156Y-2.744
X5.3666Y-2.8866
X5.3681Y-2.924
X5.4157Y-3.1819
X5.4197Y-3.3823
X5.4248Y-2.8843
X5.5037Y-3.4388
X5.5534Y-2.9024
X5.5535Y-2.9311
X5.5535Y-2.9957
X5.5575Y-2.6512
X5.5575Y-2.6795
X5.5579Y-2.9622
X5.5705Y-2.6185
X5.5717Y-2.7205
X5.5795Y-3.4681
X5.6655Y-3.2208
X5.7055Y-3.3108
X5.7705Y-2.973
X5.7716Y-3.2231
X5.7718Y-3.2555
X5.9264Y-3.1921
T2
X3.9937Y-2.9953
X4.1739Y-3.049
T3
X3.6754Y-2.6694
X3.6754Y-2.7694
X3.6754Y-2.8694
X3.6754Y-2.9694
X3.6754Y-3.0694
X3.6754Y-3.1694
X3.6754Y-3.2694
X3.6754Y-3.3694
X3.6754Y-3.4694
X4.0322Y-2.67
X4.1322Y-2.67
X4.2749Y-2.67
X4.2749Y-2.77
X4.2749Y-2.87
X4.2749Y-2.97
X4.2749Y-3.07
X4.2749Y-3.17
X4.2749Y-3.27
X4.2749Y-3.37
X4.2749Y-3.47
X4.4268Y-3.4122
X4.4268Y-2.8693
X4.4268Y-2.9693
X4.4268Y-3.0693
X4.4268Y-3.1693
X4.4268Y-3.2693
X4.5268Y-3.4122
X4.6268Y-3.4122
X4.7268Y-3.4122
M30
